<?xml version="1.0" encoding="UTF-8" standalone="no"?>
<svg
   height="24px"
   viewBox="0 -960 960 960"
   width="24px"
   fill="#e3e3e3"
   version="1.1"
   id="svg1"
   sodipodi:docname="apparel_24dp_E3E3E3_FILL1_wght400_GRAD0_opsz24.svg"
   inkscape:version="1.4.4 (dcaf3e7d9e, 2026-05-05)"
   xmlns:inkscape="http://www.inkscape.org/namespaces/inkscape"
   xmlns:sodipodi="http://sodipodi.sourceforge.net/DTD/sodipodi-0.dtd"
   xmlns="http://www.w3.org/2000/svg"
   xmlns:svg="http://www.w3.org/2000/svg">
  <defs
     id="defs1">
    <inkscape:path-effect
       effect="join_type"
       id="path-effect1"
       is_visible="true"
       lpeversion="1"
       linecap_type="butt"
       line_width="1"
       linejoin_type="extrp_arc"
       miter_limit="95.4"
       attempt_force_join="true" />
  </defs>
  <sodipodi:namedview
     id="namedview1"
     pagecolor="#ffffff"
     bordercolor="#000000"
     borderopacity="0.25"
     inkscape:showpageshadow="2"
     inkscape:pageopacity="0.0"
     inkscape:pagecheckerboard="0"
     inkscape:deskcolor="#d1d1d1"
     inkscape:zoom="16"
     inkscape:cx="1.71875"
     inkscape:cy="10.4375"
     inkscape:window-width="1920"
     inkscape:window-height="1011"
     inkscape:window-x="0"
     inkscape:window-y="0"
     inkscape:window-maximized="1"
     inkscape:current-layer="g15" />
  <g
     id="g15"
     style="display:inline;fill:none;stroke:#ffffff;stroke-opacity:1"
     transform="translate(-989.94877,14.918652)">
    <path
       id="path3"
       d="m 480,-120 h 200 c 11.33333,0 20.83333,-3.83333 28.5,-11.5 7.66667,-7.66667 11.5,-17.16667 11.5,-28.5 v -361 l 40,20 c 10,5.33333 20.16667,6.83333 30.5,4.5 10.33333,-2.33333 18.16667,-8.16667 23.5,-17.5 l 80,-140 c 5.33333,-9.33333 6.66667,-19.33333 4,-30 -2.66667,-10.66667 -8.66667,-18.66667 -18,-24 L 650,-840 h -70 c -6,0 -10.83333,1.83333 -14.5,5.5 -3.66667,3.66667 -5.5,8.5 -5.5,14.5 v 20 c 0,22 -7.83333,40.83333 -23.5,56.5 C 520.83333,-727.83333 502,-720 480,-720 Z M 240,-522 v 22.29262 h 80 V -656 L 240,-611.37943 198,-588 126.5635,-548.00639 146,-513.99029 c 5.333,9.33349 13.3333,15.33333 24,18 10.6666,2.66667 20.6666,1.33333 30,-4 l 40,-22 M 154,-658 193.5238,-680.97899 149.0264,-747.6152 80,-708 c -9.3334,5.33333 -15.3334,13.33333 -18,24 -2.6667,10.66667 -1.3331,20.66651 4,30 l 20.2103,35.37051 z m 183.6104,458 H 320 v -21.54488 H 240 V -160 c 0,11.33333 3.8333,20.83333 11.5,28.5 7.6666,7.66667 17.1666,11.5 28.5,11.5 h 57.6104 z m 91.6,80 H 480 v -600 c -22,0 -40.8334,-7.83333 -56.5,-23.5 C 407.8333,-759.16667 400,-778 400,-799.99999 v -20 c 0,-6 -1.8334,-10.8333 -5.5,-14.5 -3.6667,-3.6667 -8.5,-5.5 -14.5,-5.5 h -70 l -81.5975,46.82985 44.2117,66.20839 L 326,-758 c 10,34 28.8333,62.16667 56.5,84.5 27.6666,22.33333 60.1666,33.5 97.5,33.5 v 440 H 429.2104 Z M 240,-408.1074 v 94.96253 L 320,-314 v -94.10739 z"
       style="display:inline;fill:#000000;fill-opacity:1;stroke:none"
       transform="translate(997.68116)"
       sodipodi:nodetypes="csssccssssccsssssccccccccccsccccccccccccccssscccccsssssccccsccccccccc" />
  </g>
</svg>
